<?xml version="1.0" standalone="no"?>
<!DOCTYPE svg PUBLIC "-//W3C//DTD SVG 20010904//EN"
 "http://www.w3.org/TR/2001/REC-SVG-20010904/DTD/svg10.dtd">
<svg version="1.0" xmlns="http://www.w3.org/2000/svg"
 width="1000.000000pt" height="1000.000000pt" viewBox="0 0 1000.000000 1000.000000"
 preserveAspectRatio="xMidYMid meet">
<metadata>
Created by potrace 1.11, written by Peter Selinger 2001-2013
</metadata>
<g transform="translate(0.000000,1000.000000) scale(0.100000,-0.100000)"
fill="#000000" stroke="none">
<path d="M1597 9984 c-1 -1 -33 -4 -72 -7 -138 -12 -224 -31 -368 -78 -487
-161 -876 -542 -1047 -1025 -48 -137 -66 -216 -87 -389 -9 -82 -9 -6903 1
-6985 5 -36 10 -74 12 -85 3 -11 7 -36 10 -55 24 -155 121 -402 217 -555 106
-169 270 -347 430 -464 160 -119 389 -228 575 -275 74 -19 142 -30 262 -44 83
-9 6921 -8 6977 2 23 4 55 9 70 11 247 35 518 149 727 304 327 243 565 607
641 979 22 111 22 111 31 182 10 85 10 6915 0 7000 -5 36 -10 74 -12 85 -2 11
-9 47 -15 80 -28 157 -137 418 -232 560 -71 106 -175 231 -250 300 -82 77
-220 185 -236 185 -6 0 -11 4 -11 8 0 15 -254 140 -357 176 -117 40 -213 62
-363 82 -42 6 -6896 13 -6903 8z m2813 -593 c129 -13 336 -46 420 -66 30 -8
66 -16 80 -19 14 -2 38 -9 53 -15 15 -6 31 -10 35 -9 4 1 20 -4 35 -10 15 -7
41 -13 57 -14 17 -1 30 -5 30 -8 0 -3 27 -14 61 -24 33 -9 79 -26 102 -36 23
-10 45 -16 49 -14 4 3 8 0 8 -5 0 -6 7 -11 15 -11 8 0 23 -4 33 -9 29 -16 111
-51 124 -53 7 -2 15 -5 18 -8 15 -15 93 -49 101 -44 5 3 9 1 9 -5 0 -5 10 -13
23 -17 12 -4 24 -10 27 -13 3 -4 52 -33 110 -66 58 -32 138 -80 177 -107 40
-27 75 -49 77 -49 3 0 16 -9 28 -19 13 -11 61 -49 108 -85 47 -36 92 -71 100
-78 90 -77 132 -116 236 -218 67 -65 120 -119 117 -119 -2 0 12 -17 31 -37 20
-21 36 -42 36 -46 0 -5 6 -5 13 -1 6 4 9 4 5 0 -4 -5 21 -43 55 -85 72 -87
165 -215 174 -237 3 -7 8 -12 12 -9 4 2 8 -1 8 -8 0 -17 33 -67 45 -67 5 0 7
-4 4 -8 -3 -5 5 -24 18 -43 13 -19 45 -74 72 -124 26 -49 53 -93 58 -97 6 -4
8 -8 4 -8 -4 0 8 -30 26 -67 19 -38 44 -93 57 -123 13 -30 25 -57 28 -60 4 -3
7 -12 9 -20 7 -35 35 -100 44 -100 5 0 6 -5 3 -10 -4 -6 3 -36 15 -68 12 -31
23 -61 24 -67 15 -62 30 -105 35 -105 3 0 7 -12 8 -27 2 -47 25 -133 35 -133
5 0 6 -5 3 -10 -4 -6 1 -43 10 -83 17 -75 45 -241 46 -267 0 -8 5 -54 10 -102
23 -212 7 -687 -31 -888 -5 -24 -6 -48 -4 -52 2 -3 0 -9 -6 -13 -5 -3 -10 -17
-10 -31 0 -13 -12 -73 -26 -132 -15 -59 -27 -114 -28 -122 -1 -9 -5 -21 -9
-27 -5 -7 -10 -25 -12 -40 -2 -16 -13 -52 -24 -82 -11 -30 -19 -57 -16 -59 3
-3 1 -10 -4 -16 -14 -17 -61 -146 -53 -146 4 0 2 -4 -4 -8 -13 -9 -46 -92 -36
-92 4 0 2 -4 -4 -8 -6 -4 -36 -61 -67 -126 -32 -66 -80 -158 -107 -205 -27
-47 -49 -89 -50 -93 0 -4 -12 -20 -25 -34 -14 -15 -25 -33 -25 -40 0 -8 -4
-14 -9 -14 -5 0 -13 -9 -16 -21 -4 -12 -14 -28 -22 -37 -28 -33 -113 -151
-113 -159 0 -5 -9 -14 -21 -21 -12 -7 -19 -15 -16 -18 2 -3 -17 -28 -44 -57
-26 -29 -48 -54 -48 -57 -2 -15 -212 -226 -316 -318 -144 -128 -120 -108 -235
-193 -52 -39 -102 -76 -111 -83 -8 -7 -41 -28 -72 -46 -30 -19 -53 -39 -50
-44 4 -6 2 -8 -2 -3 -5 4 -19 0 -31 -8 -190 -124 -599 -304 -854 -375 -25 -7
-52 -15 -60 -18 -8 -3 -26 -7 -40 -9 -14 -2 -41 -9 -60 -15 -19 -6 -44 -12
-55 -14 -30 -3 -135 -23 -153 -28 -71 -22 -383 -46 -603 -47 -211 0 -272 4
-484 32 -173 23 -432 82 -567 130 -32 11 -62 18 -67 15 -5 -4 -11 -3 -13 2 -1
4 -64 32 -138 61 -182 71 -418 189 -527 263 -24 16 -43 25 -43 21 0 -4 -4 -3
-8 3 -4 6 -32 27 -62 46 -58 37 -184 128 -210 150 -8 7 -37 31 -65 53 -27 21
-65 53 -84 70 -18 16 -38 29 -43 27 -5 -1 -7 2 -3 8 3 5 2 10 -3 10 -15 0
-267 261 -345 357 -19 23 -37 40 -41 38 -3 -3 -4 -2 -1 2 5 6 -63 95 -77 101
-5 2 -8 8 -8 14 0 8 -44 72 -60 88 -7 7 -104 158 -126 198 -10 17 -21 32 -24
32 -4 0 -7 6 -7 13 -1 6 -26 57 -57 112 -31 55 -56 106 -56 112 0 7 -4 13 -10
13 -5 0 -10 7 -10 15 0 8 -14 45 -31 82 -39 86 -48 106 -84 203 -22 58 -66
190 -70 210 -2 8 -17 67 -34 131 -43 161 -75 346 -97 559 -9 91 -10 488 -1
585 21 218 58 434 103 605 26 94 87 286 103 325 16 35 25 60 26 70 4 23 125
285 148 317 10 16 15 32 12 38 -3 5 -2 10 3 10 9 0 58 82 53 89 -1 2 1 7 6 10
14 9 76 115 76 129 0 6 3 10 5 7 3 -3 30 32 60 78 73 108 138 192 249 322 14
17 62 68 107 115 45 46 81 89 81 95 0 5 5 10 12 10 6 0 38 25 70 55 32 30 76
71 98 90 22 18 39 38 37 42 -1 4 2 7 6 6 5 -2 67 40 138 92 71 53 155 113 188
134 78 50 297 176 308 176 4 0 8 5 8 12 0 6 3 9 6 6 3 -3 42 11 87 32 45 20
90 40 100 43 9 4 17 11 17 16 0 6 6 8 14 5 7 -3 20 2 29 10 8 8 17 12 20 9 4
-3 21 1 39 10 30 14 161 61 198 72 14 3 135 38 235 67 22 6 49 12 60 13 11 2
67 12 125 23 290 56 679 73 980 43z m2560 -5802 c70 -40 99 -132 64 -202 -22
-42 -347 -371 -403 -408 -80 -51 -163 -32 -218 50 -29 42 -30 99 -3 149 22 43
359 380 410 411 45 27 102 27 150 0z m515 -394 c80 -27 116 -46 175 -91 80
-61 1622 -1611 1656 -1664 45 -68 62 -111 80 -201 37 -182 -18 -353 -156 -489
-77 -76 -165 -123 -270 -145 -90 -19 -122 -19 -218 1 -170 35 -126 -3 -1048
918 -882 883 -851 848 -898 989 -41 123 -27 281 36 409 38 76 150 191 225 231
86 46 185 68 283 63 47 -2 108 -12 135 -21z"/>
<path d="M3860 8854 c-85 -5 -298 -35 -395 -56 -173 -38 -393 -105 -500 -153
-27 -13 -72 -33 -100 -45 -127 -55 -376 -192 -383 -212 -2 -4 -9 -8 -16 -8 -7
0 -25 -11 -40 -25 -15 -14 -31 -25 -35 -25 -4 0 -20 -11 -35 -25 -14 -13 -26
-22 -26 -19 0 7 -68 -48 -182 -145 -48 -41 -84 -79 -81 -84 3 -6 2 -7 -4 -4
-11 7 -120 -103 -115 -116 1 -5 -2 -6 -7 -3 -10 7 -197 -211 -193 -225 1 -5
-2 -9 -6 -9 -11 0 -98 -120 -94 -131 1 -5 -2 -9 -7 -9 -11 0 -44 -50 -44 -67
0 -7 -3 -10 -7 -8 -8 5 -35 -45 -32 -57 1 -5 -2 -8 -8 -8 -5 0 -10 -7 -10 -15
0 -8 -4 -15 -9 -15 -5 0 -15 -16 -22 -35 -7 -19 -17 -35 -22 -35 -5 0 -7 -7
-3 -15 3 -8 2 -15 -2 -15 -16 0 -135 -263 -125 -274 4 -3 1 -6 -5 -6 -9 0 -27
-41 -38 -85 -2 -5 -11 -30 -20 -55 -9 -25 -20 -58 -25 -75 -4 -16 -17 -64 -29
-105 -24 -87 -67 -298 -74 -367 -3 -26 -9 -75 -13 -108 -12 -92 -8 -550 6
-635 26 -165 64 -355 82 -415 48 -157 95 -291 136 -385 38 -90 135 -280 142
-280 4 0 8 -6 8 -12 1 -23 49 -98 58 -91 4 5 5 3 2 -4 -4 -6 0 -18 8 -26 8 -9
15 -20 15 -25 0 -11 70 -105 82 -110 4 -2 8 -10 8 -17 0 -8 6 -18 14 -22 8 -4
15 -12 16 -18 3 -27 293 -352 310 -348 6 2 10 -4 10 -12 0 -8 4 -15 8 -15 4 0
29 -21 55 -47 26 -25 47 -44 47 -41 0 3 21 -14 47 -38 26 -24 55 -46 65 -50
10 -3 18 -9 18 -13 0 -9 150 -118 157 -113 2 1 12 -6 23 -16 36 -33 290 -178
290 -165 0 4 4 3 8 -3 4 -6 28 -20 55 -32 26 -12 66 -31 90 -42 24 -11 51 -20
60 -20 9 0 19 -5 22 -11 4 -6 14 -8 22 -5 8 3 12 2 9 -2 -4 -6 79 -39 144 -57
3 -1 12 -5 20 -8 43 -18 272 -73 360 -87 183 -29 290 -40 440 -42 241 -3 313
1 510 27 65 9 205 36 220 42 8 3 26 8 40 10 51 8 295 85 298 94 2 5 7 7 12 4
9 -6 162 55 171 68 3 5 8 8 10 6 9 -5 49 13 49 22 0 6 4 8 9 5 9 -6 162 71
172 87 3 5 9 8 13 8 20 -3 26 0 21 9 -4 6 -3 9 2 8 14 -4 53 13 53 23 0 5 5 9
11 9 16 0 169 101 169 111 0 5 6 9 13 9 16 0 147 99 147 111 0 5 7 9 15 9 22
0 352 331 423 425 34 44 68 87 77 96 8 9 15 21 15 27 0 7 4 12 8 12 7 0 48 62
44 68 -1 1 7 11 17 21 31 31 156 251 143 251 -4 0 1 5 11 11 9 5 17 19 17 29
0 11 3 20 8 20 4 0 13 15 21 33 8 17 24 55 37 82 45 101 135 348 132 364 -1 3
2 13 5 21 10 25 37 121 35 128 -1 4 1 14 5 22 9 25 27 112 31 155 2 22 6 47 9
55 24 67 39 526 24 695 -9 98 -18 170 -23 185 -3 8 -8 35 -11 60 -3 25 -14 83
-25 130 -11 47 -21 92 -23 100 -10 45 -45 162 -52 172 -4 7 -8 18 -8 23 0 17
-37 118 -53 150 -9 17 -17 37 -18 45 -2 8 -7 23 -13 35 -5 11 -24 52 -42 90
-17 39 -37 73 -43 77 -6 4 -8 8 -4 8 7 0 0 15 -65 130 -48 86 -104 170 -109
165 -3 -3 -5 1 -5 9 0 17 -64 106 -76 106 -6 0 -8 3 -4 6 7 8 -133 180 -144
176 -5 -1 -8 2 -7 6 4 12 -154 182 -164 176 -5 -3 -7 -1 -6 3 3 10 -162 158
-250 224 -31 23 -74 55 -95 71 -20 16 -42 26 -47 23 -6 -4 -9 -1 -8 7 2 7 -5
12 -14 12 -10 -1 -16 2 -13 6 2 4 -8 13 -23 21 -15 8 -33 20 -40 27 -8 7 -18
10 -23 7 -5 -4 -9 -2 -9 4 0 14 -90 62 -103 54 -5 -3 -7 -2 -4 4 7 12 -201
113 -343 168 -86 33 -251 85 -275 87 -14 1 -25 5 -25 9 0 6 -47 17 -105 26
-11 1 -49 9 -85 18 -36 8 -85 17 -110 20 -25 3 -72 10 -105 15 -59 10 -448 20
-555 14z m1665 -935 c11 -2 22 -6 25 -9 3 -3 23 -17 46 -32 74 -48 69 61 69
-1404 -1 -1283 -1 -1321 -20 -1374 -11 -30 -24 -58 -30 -62 -5 -4 -7 -8 -3 -8
4 0 -6 -14 -22 -32 -16 -17 -26 -36 -23 -41 3 -6 1 -7 -5 -3 -6 3 -14 0 -19
-8 -11 -19 -155 -126 -170 -126 -7 0 -13 -5 -13 -10 0 -6 -3 -9 -7 -8 -5 2
-39 -10 -78 -26 -38 -15 -77 -29 -85 -31 -8 -2 -42 -10 -75 -19 -57 -14 -196
-31 -260 -30 -136 1 -295 35 -395 83 -33 16 -60 28 -60 26 0 -2 -14 9 -32 25
-17 16 -34 28 -36 25 -7 -6 -112 119 -112 133 0 8 -5 10 -12 6 -7 -4 -10 -4
-6 1 4 4 1 20 -7 35 -54 104 -55 285 -1 368 4 7 6 16 3 18 -3 3 6 17 19 31 13
14 22 28 21 32 -1 3 23 31 55 62 32 32 58 54 58 51 0 -3 8 2 18 10 53 48 228
112 342 126 69 8 228 8 300 1 61 -7 153 -32 217 -60 39 -17 42 -17 46 -1 3 9
4 345 3 746 -1 574 -4 730 -13 734 -7 2 -13 -1 -13 -7 0 -6 -3 -10 -7 -9 -17
4 -73 -14 -73 -23 0 -6 -4 -8 -9 -4 -5 3 -22 0 -38 -6 -15 -6 -37 -15 -48 -20
-11 -4 -49 -17 -85 -29 -36 -11 -73 -25 -82 -30 -10 -6 -22 -10 -27 -10 -5 0
-25 -7 -45 -15 -20 -8 -38 -15 -41 -15 -3 0 -22 -7 -42 -14 -21 -8 -85 -31
-143 -52 -58 -20 -116 -41 -130 -47 -14 -5 -30 -11 -36 -12 -24 -6 -249 -89
-254 -94 -3 -3 -9 -6 -15 -7 -27 -2 -75 -17 -75 -24 0 -3 -6 -7 -12 -8 -7 0
-20 -3 -28 -5 -15 -4 -26 -8 -85 -30 -16 -6 -34 -13 -40 -14 -20 -4 -110 -38
-115 -43 -3 -3 -14 -7 -25 -8 -11 -2 -24 -8 -30 -13 -7 -7 -10 -393 -11 -1117
0 -1197 2 -1145 -55 -1228 -16 -23 -25 -45 -21 -49 4 -3 2 -5 -3 -4 -6 2 -34
-20 -62 -48 -29 -29 -62 -54 -73 -58 -11 -4 -18 -11 -15 -16 4 -5 -1 -9 -9 -9
-17 0 -87 -39 -98 -55 -4 -5 -8 -7 -8 -4 0 5 -165 -47 -165 -52 0 0 -11 -2
-25 -5 -14 -2 -36 -7 -50 -10 -33 -9 -48 -10 -157 -19 -104 -8 -228 5 -343 36
-77 21 -209 84 -223 106 -4 7 -12 13 -17 13 -13 0 -90 84 -118 128 -62 101
-87 255 -56 345 7 20 13 40 13 42 1 3 8 19 16 35 9 17 13 30 11 30 -3 0 6 12
20 27 13 14 22 28 20 30 -6 6 89 91 137 123 20 14 37 29 37 33 0 5 5 5 10 2 6
-4 30 5 54 19 24 14 46 23 48 21 3 -3 21 2 41 10 21 8 37 13 37 10 0 -2 12 0
28 6 80 31 353 28 472 -6 30 -9 62 -18 72 -20 9 -2 30 -11 47 -20 18 -9 35
-14 40 -11 4 3 9 513 9 1133 1 620 3 1136 5 1145 5 29 45 76 76 92 16 9 64 27
107 41 44 15 86 29 94 32 8 3 24 8 35 10 10 2 22 7 25 11 3 4 12 8 20 8 23 2
203 64 216 75 6 5 13 6 16 3 4 -3 20 2 37 10 17 9 33 16 36 16 13 -2 241 76
247 85 4 6 8 7 8 3 0 -4 98 27 218 68 119 41 247 85 285 96 37 12 67 25 67 30
0 5 4 7 9 4 4 -3 73 17 152 45 79 27 151 52 159 54 8 2 58 19 110 39 93 34
152 40 235 25z"/>
</g>
</svg>
